<svg preserveAspectRatio="none" width="100%" height="100%" overflow="visible" style="display: block;" viewBox="0 0 26 31.9996" fill="none" xmlns="http://www.w3.org/2000/svg">
<g id="Vector">
<path d="M25 13C25 20.4895 16.6915 28.2895 13.9015 30.6985C13.6416 30.8939 13.3252 30.9996 13 30.9996C12.6748 30.9996 12.3584 30.8939 12.0985 30.6985C9.3085 28.2895 1 20.4895 1 13C1 9.8174 2.26428 6.76516 4.51472 4.51472C6.76516 2.26428 9.8174 1 13 1C16.1826 1 19.2348 2.26428 21.4853 4.51472C23.7357 6.76516 25 9.8174 25 13Z" stroke="var(--stroke-0, #B38A24)" stroke-width="2" stroke-linecap="round" stroke-linejoin="round"/>
<path d="M13 17.5C15.4853 17.5 17.5 15.4853 17.5 13C17.5 10.5147 15.4853 8.5 13 8.5C10.5147 8.5 8.5 10.5147 8.5 13C8.5 15.4853 10.5147 17.5 13 17.5Z" stroke="var(--stroke-0, #B38A24)" stroke-width="2" stroke-linecap="round" stroke-linejoin="round"/>
</g>
</svg>
