<svg preserveAspectRatio="none" width="100%" height="100%" overflow="visible" style="display: block;" viewBox="0 0 32 29" fill="none" xmlns="http://www.w3.org/2000/svg">
<path id="Vector" d="M22 28V25C22 23.4087 21.3679 21.8826 20.2426 20.7574C19.1174 19.6321 17.5913 19 16 19H7C5.4087 19 3.88258 19.6321 2.75736 20.7574C1.63214 21.8826 1 23.4087 1 25V28M22 13L25 16L31 10M17.5 7C17.5 10.3137 14.8137 13 11.5 13C8.18629 13 5.5 10.3137 5.5 7C5.5 3.68629 8.18629 1 11.5 1C14.8137 1 17.5 3.68629 17.5 7Z" stroke="var(--stroke-0, #B38A24)" stroke-width="2" stroke-linecap="round" stroke-linejoin="round"/>
</svg>
