<svg preserveAspectRatio="none" width="100%" height="100%" overflow="visible" style="display: block;" viewBox="0 0 647.839 632.755" fill="none" xmlns="http://www.w3.org/2000/svg">
<g id="Topology-1" opacity="0.3">
<path id="Vector 90" d="M8.55745 161.779C-36.6744 -2.12689 130.881 -18.8105 251.801 30.6805C322.352 56.1331 368.684 -23.0225 456.083 8.56746C543.482 40.1575 438.708 139.666 572.439 190.737C706.17 241.807 640.884 470.308 524.001 472.94C407.118 475.573 439.235 514.007 322.352 601.933C205.469 689.858 8.55771 567.71 57.5222 438.718C106.487 309.725 57.5216 339.209 8.55745 161.779Z" stroke="var(--stroke-0, #D40C1A)" stroke-opacity="0.2" stroke-width="2"/>
<path id="Vector 91" d="M260.121 289.338C254.902 273.727 279.346 248.542 299.002 259.291C317.002 269.133 335.331 262.495 347.44 266.883C379.32 278.434 367.593 284.549 381.844 298.268C399.186 314.962 407.461 358.678 367.593 358.678C334.804 358.678 344.615 374.603 320.062 381.659C295.509 388.716 267.664 376.704 267.664 345.081C267.664 333.206 268.813 315.339 260.121 289.338Z" stroke="var(--stroke-0, #B38A24)" stroke-width="2"/>
<path id="Vector 90 - Vector 91 - 91" d="M31.4226 172.579C-10.1717 22.1542 144.374 4.69775 256.087 50.6667C321.861 74.7001 365.647 2.13703 446.202 31.2541C528.554 61.0224 432.239 152.041 555.108 199.716C678.259 247.661 619.66 459.363 509.778 461.756C400.54 464.15 430.629 500.538 322.139 581.112C213.65 661.685 32.1086 549.55 76.6218 429.409C121.135 311.063 76.7257 336.243 31.4226 172.579Z" stroke="var(--stroke-0, #D40C1A)" stroke-opacity="0.2" stroke-width="2"/>
<path id="Vector 90 - Vector 91 - 182" d="M54.2896 183.379C16.3328 46.4357 157.868 28.2064 260.376 70.6532C321.372 93.2675 362.613 27.297 436.323 53.9411C513.627 81.8878 425.772 164.416 537.779 208.695C650.348 253.515 598.437 448.419 495.557 450.573C393.963 452.726 422.024 487.068 321.929 560.29C221.833 633.512 55.6614 531.389 95.7232 420.1C135.785 312.402 95.9316 333.277 54.2896 183.379Z" stroke="var(--stroke-0, #D40C1A)" stroke-opacity="0.3" stroke-width="2"/>
<path id="Vector 90 - Vector 91 - 273" d="M77.1567 194.18C42.8375 70.7187 171.363 51.7166 264.665 90.6414C320.884 111.837 359.579 52.4585 426.444 76.6297C498.701 102.755 419.304 176.792 520.45 217.676C622.439 259.371 577.214 437.476 481.336 439.39C387.387 441.305 413.42 473.601 321.718 539.471C230.016 605.341 79.2143 513.231 114.825 410.793C150.435 313.742 115.138 330.312 77.1567 194.18Z" stroke="var(--stroke-0, #D40C1A)" stroke-opacity="0.3" stroke-width="2"/>
<path id="Vector 90 - Vector 91 - 364" d="M100.018 204.982C69.3365 95.0016 184.852 75.2267 268.948 110.629C320.389 130.405 356.538 77.6199 416.559 99.3182C483.77 123.621 412.832 189.168 503.115 226.657C594.523 265.227 555.986 426.533 467.109 428.208C380.805 429.883 404.811 460.133 321.502 518.651C238.194 577.17 102.762 495.072 133.921 401.486C165.08 315.082 134.338 327.347 100.018 204.982Z" stroke="var(--stroke-0, #D40C1A)" stroke-opacity="0.4" stroke-width="2"/>
<path id="Vector 90 - Vector 91 - 455" d="M122.886 216.331C95.8418 119.832 198.347 99.2839 273.238 131.164C319.901 149.521 353.505 103.328 406.681 122.554C468.844 145.035 406.365 202.092 485.787 236.185C566.614 271.63 534.764 416.137 452.888 417.573C374.23 419.009 396.207 447.212 321.293 498.379C246.378 549.546 126.315 477.46 153.023 392.726C179.731 316.968 153.545 324.929 122.886 216.331Z" stroke="var(--stroke-0, #D40C1A)" stroke-opacity="0.4" stroke-width="2"/>
<path id="Vector 90 - Vector 91 - 545" d="M145.754 228.328C122.347 145.31 211.842 123.989 277.527 152.348C319.413 169.286 350.471 129.685 396.803 146.437C453.919 167.097 399.898 215.664 468.458 246.361C538.704 278.681 513.542 406.389 438.668 407.586C367.654 408.783 387.604 434.939 321.083 478.755C254.562 522.57 149.869 460.496 172.125 384.614C194.382 319.504 172.751 323.16 145.754 228.328Z" stroke="var(--stroke-0, #D40C1A)" stroke-opacity="0.6" stroke-width="2"/>
<path id="Vector 90 - Vector 91 - 636" d="M168.62 240.36C148.851 170.823 225.336 148.73 281.815 173.566C318.924 189.085 347.436 156.077 386.924 170.357C438.992 189.195 393.431 229.271 451.129 256.572C510.794 285.767 492.319 396.677 424.446 397.634C361.077 398.592 378.999 422.702 320.872 459.166C262.744 495.629 173.421 443.568 191.226 376.537C209.031 322.074 191.957 321.426 168.62 240.36Z" stroke="var(--stroke-0, #D40C1A)" stroke-opacity="0.6" stroke-width="2"/>
<path id="Vector 90 - Vector 91 - 727" d="M191.494 252.444C175.362 196.389 238.837 173.522 286.11 194.837C318.442 208.936 344.408 182.521 377.051 194.327C424.072 211.344 386.97 242.929 433.806 266.835C482.89 292.905 471.103 387.016 410.231 387.734C354.507 388.452 370.401 410.517 320.668 439.628C270.934 468.74 196.98 426.691 210.334 368.513C223.688 324.696 211.169 319.743 191.494 252.444Z" stroke="var(--stroke-0, #B38A24)" stroke-width="2"/>
<path id="Vector 90 - Vector 91 - 818" d="M214.363 264.605C201.869 222.031 252.333 198.392 290.401 216.184C317.955 228.865 341.376 209.042 367.174 218.375C409.148 233.57 380.504 256.665 416.479 277.176C454.982 300.12 449.882 377.433 396.012 377.912C347.933 378.39 361.799 398.408 320.459 420.168C279.119 441.928 220.535 409.892 229.438 360.565C238.34 327.396 230.377 318.138 214.363 264.605Z" stroke="var(--stroke-0, #B38A24)" stroke-width="2"/>
<path id="Vector 90 - Vector 91 - 909" d="M237.237 276.882C228.381 247.79 265.835 223.378 294.697 237.648C317.474 248.909 338.349 235.679 357.303 242.54C394.23 255.913 374.044 270.518 399.157 287.632C427.08 307.452 428.667 367.966 381.798 368.205C341.364 368.444 353.203 386.416 320.256 400.824C287.31 415.233 244.095 393.209 248.547 352.734C252.998 330.211 249.59 316.649 237.237 276.882Z" stroke="var(--stroke-0, #B38A24)" stroke-width="2"/>
</g>
</svg>
