<?xml version="1.0" encoding="UTF-8"?><svg id="Layer_2" xmlns="http://www.w3.org/2000/svg" viewBox="0 0 334.46 109.69"><defs><style>.cls-1,.cls-2,.cls-3,.cls-4,.cls-5{fill:none;stroke-linecap:round;}.cls-1,.cls-2,.cls-4{stroke-width:2px;}.cls-1,.cls-3,.cls-4{stroke:#b28b2e;}.cls-2,.cls-3,.cls-4,.cls-5{stroke-linejoin:round;}.cls-2,.cls-5{stroke:#b38b2e;}.cls-6{fill:#b38b2e;}</style></defs><g id="keret"><line class="cls-2" x1="242.24" y1="1.01" x2="41.8" y2="1.01"/><polyline class="cls-4" points="24.67 18.26 11.96 52.37 1 52.37"/><polyline class="cls-3" points="242.24 12.45 241.23 12.45 1 12.45"/><polyline class="cls-4" points="27.22 8.64 30.17 1 242.24 1"/><polyline class="cls-2" points="278.22 30.42 259.42 30.42 254.46 17.56"/><polyline class="cls-2" points="252.31 8.64 249.36 1.01 242.24 1.01"/><line class="cls-5" x1="324.42" y1="95.11" x2="315.02" y2="100.09"/><polyline class="cls-5" points="330.34 93.03 333.94 91.14 333.96 12.45"/><line class="cls-5" x1="314.99" y1="108.69" x2="314.99" y2="100.09"/><line class="cls-3" x1="333.96" y1="12.45" x2="242.24" y2="12.45"/><path class="cls-6" d="M334.42,62.9v-2"/><path class="cls-6" d="M328.56,60.9c-9.03-.45-17.89-3.01-25.99-7.66-9.85-5.67-17.65-14.03-22.67-23.84h-2.24c5.18,10.54,13.42,19.53,23.92,25.57,8.37,4.81,17.64,7.45,27.01,7.92"/><line class="cls-1" x1="327.62" y1="62.97" x2="327.62" y2="108.69"/></g></svg>