<svg preserveAspectRatio="none" width="100%" height="100%" overflow="visible" style="display: block;" viewBox="0 0 108.261 137.13" fill="none" xmlns="http://www.w3.org/2000/svg">
<g id="Frame 157">
<path id="Vector" d="M50.0026 133.393L91.0946 96.4121L13.0832 93.3805L50.0026 133.393Z" fill="var(--fill-0, #6B55A4)"/>
<path id="Vector_2" d="M11.4197 90.6624L92.8907 93.8509L55.6808 3.86801L11.4197 90.6624Z" fill="var(--fill-0, #B29FCC)"/>
<path id="Vector_3" d="M2.89011 39.5423C2.75807 39.6469 2.67884 39.8037 2.70525 39.9605L10.2582 87.1081L51.7991 5.59293L2.89011 39.5423Z" fill="var(--fill-0, #7864AC)"/>
<path id="Vector_4" d="M105.407 43.5409L59.4558 6.01102L94.3153 90.2703L105.565 43.9852C105.618 43.8284 105.565 43.6455 105.407 43.5409Z" fill="var(--fill-0, #7864AC)"/>
<path id="Vector_5" d="M94.2101 96.5428C94.2101 96.5428 94.1572 96.5428 94.1308 96.5428L9.96615 93.2759C9.35874 93.2759 8.77775 92.91 8.48726 92.3873C8.17035 91.8646 8.14394 91.2112 8.43444 90.6624L54.148 0.993131C54.4649 0.36589 55.1251 0 55.8381 0C56.5512 0.026135 57.185 0.47043 57.4491 1.12381L95.9002 94.0861C96.1379 94.6611 96.0587 95.2883 95.7154 95.7849C95.372 96.2553 94.8175 96.5428 94.2365 96.5428H94.2101ZM11.4186 90.6624L92.8896 93.8247L55.6797 3.86798L11.4186 90.6624Z" fill="var(--fill-0, #3D2872)"/>
<path id="Vector_6" d="M8.3038 92.0214L0.0378598 40.3786C-0.147001 39.2287 0.354765 38.0265 1.33189 37.3469L54.3607 0.574974L55.8924 2.74418L2.89001 39.5423C2.75796 39.6468 2.67873 39.8036 2.70514 39.9866L10.9711 91.6033L8.33021 92.0214H8.3038Z" fill="var(--fill-0, #3D2872)"/>
<path id="Vector_7" d="M95.8213 95.4189L93.2068 94.7917L105.54 43.9591C105.593 43.8023 105.54 43.6193 105.381 43.5148L55.4687 2.74415L57.1853 0.705617L107.124 41.5024C108.049 42.2603 108.445 43.4625 108.181 44.6125L95.8477 95.4451L95.8213 95.4189Z" fill="var(--fill-0, #3D2872)"/>
<path id="Vector_8" d="M49.817 137.13L8.38168 92.2305L10.3623 90.4533L50.0019 133.393L93.6291 94.1383L95.4249 96.0984L49.817 137.13Z" fill="var(--fill-0, #3D2872)"/>
<g id="Vector_9">
<path d="M55.3255 104.921L55.2375 107.128L49.2157 119.421L45.477 119.275L51.285 107.542L46.3568 107.35L46.2612 109.747L43.2023 109.627L43.4085 104.456L55.3255 104.921Z" fill="var(--fill-0, #3D2872)"/>
<path d="M59.6878 64.0327L59.5412 67.7074L44.6605 67.1262L44.7771 64.2032L52.6553 57.401C53.492 56.6716 54.0617 56.0433 54.3645 55.5161C54.668 54.9703 54.8305 54.4283 54.8519 53.8901C54.883 53.1106 54.6348 52.5061 54.1072 52.0766C53.5992 51.6292 52.8294 51.3854 51.798 51.3451C50.9353 51.3114 50.1504 51.4481 49.4432 51.755C48.7368 52.0434 48.1362 52.5033 47.6414 53.1345L44.4065 50.8892C45.2205 49.7871 46.3152 48.9469 47.6906 48.3687C49.0668 47.7718 50.6269 47.5075 52.3709 47.5756C53.8337 47.6327 55.0993 47.9238 56.1677 48.4488C57.2556 48.956 58.0823 49.6574 58.6476 50.5531C59.2324 51.431 59.5015 52.4546 59.4549 53.6238C59.4127 54.6816 59.148 55.6657 58.661 56.5761C58.1739 57.4865 57.2597 58.5103 55.9183 59.6475L51.2207 63.702L59.6878 64.0327Z" fill="var(--fill-0, #3D2872)"/>
<path d="M97.8509 45.1795L95.6202 46.4083L97.2212 49.2549L94.1295 50.9579L92.5285 48.1112L85.1514 52.1747L83.9642 50.0639L85.5859 37.909L88.9124 36.0767L87.5099 47.5275L91.1886 45.5012L89.7619 42.9644L92.7558 41.3153L94.1825 43.8521L96.4132 42.6233L97.8509 45.1795Z" fill="var(--fill-0, #3D2872)"/>
<path d="M27.4472 38.8789L17.377 50.7683L14.5966 48.4619L22.7966 38.7805L20.3938 36.7874L22.264 34.5793L27.4472 38.8789Z" fill="var(--fill-0, #3D2872)"/>
</g>
</g>
</svg>
