<?xml version="1.0" encoding="UTF-8"?><svg id="Layer_2" xmlns="http://www.w3.org/2000/svg" viewBox="0 0 19.98 328.8" preserveAspectRatio="none"><defs><style>.cls-1,.cls-2,.cls-3,.cls-4,.cls-5,.cls-6{fill:none;stroke:#b28a2e;}.cls-1,.cls-3,.cls-6{stroke-linecap:round;}.cls-1,.cls-4{stroke-width:2px;}.cls-2,.cls-3{stroke-linejoin:round;}</style></defs><g id="keret"><line class="cls-3" x1="19.03" y1="213.08" x2="19.37" y2="165.26"/><polyline class="cls-2" points="19.37 165.26 .53 153.16 .5 0"/><polyline class="cls-3" points="19.37 165.26 .53 153.16 .5 2.69"/><line class="cls-3" x1="19.03" y1="213.08" x2="17.3" y2="214.25"/><path class="cls-6" d="M8.53,218.96l-8.03,5.09v97.6h18.97s0,.19,0,4.18"/><line class="cls-4" x1="13.13" y1="0" x2="13.13" y2="151.64"/><line class="cls-1" x1="13.11" y1="166.29" x2="13.11" y2="314.58"/><line class="cls-1" x1="13.13" y1="7.14" x2="13.13" y2="156.79"/><path class="cls-5" d="M8.53,218.96l-8.03,5.09v97.6h18.97s0,3.17,0,7.16"/><line class="cls-4" x1="13.11" y1="326.17" x2="13.11" y2="328.8"/><line class="cls-1" x1="13.11" y1="326.17" x2="13.11" y2="327.49"/></g></svg>