<?xml version="1.0" encoding="UTF-8"?>
<svg id="Layer_2" xmlns="http://www.w3.org/2000/svg" viewBox="-10 -10 548.24 193.88">
  <defs>
    <style>
      .st0 { filter: url(#outer-glow-1); }
      .cls-1,.cls-2,.cls-3 { stroke-linejoin: round; }
      .cls-1,.cls-2,.cls-3,.cls-4 { fill: none; stroke: #f4e6c9; }
      .cls-2 { stroke-linecap: round; }
      .cls-2,.cls-3 { stroke-width: 2px; }
    </style>
    <filter id="outer-glow-1" x="-10" y="-10" width="548.24" height="193.88" filterUnits="userSpaceOnUse">
      <feOffset dx="0" dy="0"/>
      <feGaussianBlur result="blur" stdDeviation="2"/>
      <feFlood flood-color="#b29414" flood-opacity="1"/>
      <feComposite in2="blur" operator="in"/>
      <feComposite in="SourceGraphic"/>
    </filter>
  </defs>
  <g id="keret" class="st0">
    <polyline class="cls-2" points="153.52 10.13 156.47 2.49 400.33 2.49"/>
    <polyline class="cls-3" points="50.56 173.87 50.65 155.09 50.56 103.3 15.66 86.14 1 50.87 15.66 15.61 51.04 1 86.42 15.61 92.92 30.9 145.12 30.9 150.08 18.05"/>
    <line class="cls-2" x1="147.69" y1="24.24" x2="150.08" y2="18.05"/>
    <polyline class="cls-4" points="106.36 25.83 113.22 13.93 528.24 13.93"/>
    <polyline class="cls-1" points="47.22 106.53 44.26 110.89 44.13 173.87"/>
    <polyline class="cls-3" points="493.27 19.74 505.98 53.85 528.24 53.85"/>
    <polyline class="cls-2" points="493.27 19.74 505.98 53.85 520.5 53.85"/>
    <polyline class="cls-2" points="489.49 10.12 486.54 2.48 242.68 2.48"/>
  </g>
</svg>
