<?xml version="1.0" encoding="UTF-8"?><svg id="Layer_2" xmlns="http://www.w3.org/2000/svg" viewBox="0 0 333.46 108.69"><defs><style>.cls-1,.cls-2,.cls-3,.cls-4,.cls-5,.cls-6{fill:none;stroke:#b28a2e;}.cls-1,.cls-3,.cls-4,.cls-6{stroke-width:2px;}.cls-1,.cls-3,.cls-5{stroke-linecap:round;}.cls-7{fill:#b28a2e;}.cls-2,.cls-3,.cls-4,.cls-5{stroke-linejoin:round;}</style></defs><g id="keret"><line class="cls-3" x1="241.24" y1="1.01" x2="40.8" y2="1.01"/><polyline class="cls-3" points="23.67 18.26 10.96 52.37 2.97 52.37"/><polyline class="cls-2" points="241.24 12.45 240.23 12.45 0 12.45"/><polyline class="cls-3" points="26.22 8.64 29.17 1 241.24 1"/><polyline class="cls-4" points="23.67 18.26 10.96 52.37 0 52.37"/><polyline class="cls-3" points="277.22 30.41 258.42 30.41 253.46 17.56"/><polyline class="cls-3" points="251.31 8.64 248.36 1.01 241.24 1.01"/><line class="cls-5" x1="323.42" y1="95.1" x2="314.02" y2="100.08"/><polyline class="cls-5" points="329.34 93.02 332.94 91.14 332.96 12.45"/><line class="cls-5" x1="313.99" y1="106.75" x2="313.99" y2="100.08"/><line class="cls-5" x1="332.96" y1="12.45" x2="241.24" y2="12.45"/><line class="cls-7" x1="333.42" y1="62.9" x2="333.42" y2="60.9"/><path class="cls-7" d="M327.56,60.9c-9.03-.45-17.89-3.01-25.99-7.66-9.85-5.67-17.65-14.03-22.67-23.84h-2.24c5.18,10.54,13.42,19.53,23.92,25.57,8.37,4.81,17.64,7.45,27.01,7.92"/><line class="cls-1" x1="326.62" y1="62.97" x2="326.62" y2="105.24"/><line class="cls-6" x1="326.62" y1="62.97" x2="326.62" y2="108.69"/><line class="cls-2" x1="313.99" y1="108.69" x2="313.99" y2="100.08"/></g></svg>