<?xml version="1.0" encoding="UTF-8"?>
<svg id="Layer_2" xmlns="http://www.w3.org/2000/svg" viewBox="-10 -10 208.96 137.57">
  <defs>
    <style>
      .st0 { filter: url(#outer-glow-1); }
      .cls-1,.cls-2,.cls-3,.cls-4,.cls-5,.cls-6 { fill: none; stroke: #f4e6c9; }
      .cls-1,.cls-3,.cls-4,.cls-6 { stroke-width: 2px; }
      .cls-1,.cls-3,.cls-5 { stroke-linecap: round; }
      .cls-2,.cls-3,.cls-4,.cls-5 { stroke-linejoin: round; }
    </style>
    <filter id="outer-glow-1" x="-10" y="-10" width="208.96" height="137.57" filterUnits="userSpaceOnUse">
      <feOffset dx="0" dy="0"/>
      <feGaussianBlur result="blur" stdDeviation="2"/>
      <feFlood flood-color="#b29414" flood-opacity="1"/>
      <feComposite in2="blur" operator="in"/>
      <feComposite in="SourceGraphic"/>
    </filter>
  </defs>
  <g id="keret" class="st0">
    <line class="cls-3" x1="132.64" y1="110.52" x2="5.62" y2="110.52"/>
    <line class="cls-4" x1="132.64" y1="110.52" x2="0" y2="110.52"/>
    <polyline class="cls-1" points="146.82 96.15 182.11 59.66 182.11 28.21"/>
    <line class="cls-1" x1="132.64" y1="110.52" x2="136.75" y2="106.35"/>
    <line class="cls-5" x1="172.65" y1="79.26" x2="172.65" y2="101.58"/>
    <line class="cls-5" x1="172.3" y1="101.58" x2="61.63" y2="101.58"/>
    <polyline class="cls-5" points="29.48 114.88 28.12 117.04 2.72 117.07"/>
    <line class="cls-5" x1="36.84" y1="101.63" x2="33.89" y2="106.58"/>
    <line class="cls-5" x1="61.63" y1="101.63" x2="36.84" y2="101.63"/>
    <polyline class="cls-2" points="29.48 114.88 28.12 117.04 0 117.07"/>
    <line class="cls-1" x1="182.1" y1="9.11" x2="182.12" y2="2.4"/>
    <line class="cls-6" x1="182.1" y1="6" x2="182.12" y2="0"/>
    <polyline class="cls-5" points="188.46 1.62 188.46 13.62 169.51 25.53 169.51 58.52"/>
    <polyline class="cls-2" points="188.46 0 188.46 13.62 169.51 25.53 169.51 58.52"/>
  </g>
</svg>
