<?xml version="1.0" encoding="UTF-8"?><svg id="Layer_2" xmlns="http://www.w3.org/2000/svg" xmlns:xlink="http://www.w3.org/1999/xlink" viewBox="0 0 315.65 87.89"><defs><style>.cls-1{fill:#3c0e2c;}.cls-2{fill:url(#linear-gradient);}.cls-3{fill:#fff;}.cls-4{fill:#b28b2e;}</style><linearGradient id="linear-gradient" x1="2.81" y1="-4668.07" x2="72.4" y2="-4661.22" gradientTransform="translate(0 -4620.6374) scale(1 -1)" gradientUnits="userSpaceOnUse"><stop offset=".24" stop-color="#3c0f2c"/><stop offset="1" stop-color="#b41e40"/></linearGradient></defs><g id="maszk"><path class="cls-3" d="M58.8,27.45v.91c-.92.03-1.63.15-2.12.36-.46.18-.77.54-.92,1.09-.15.51-.23,1.33-.23,2.45v22.49c0,1.09.08,1.9.23,2.45.18.54.51.91.97,1.09.46.18,1.15.3,2.07.36v.91c-.95-.06-2.17-.09-3.64-.09-1.47-.03-2.98-.05-4.52-.05-1.66,0-3.23.02-4.7.05-1.44,0-2.61.03-3.5.09v-.91c1.04-.06,1.83-.18,2.35-.36.55-.18.92-.54,1.11-1.09.18-.54.28-1.36.28-2.45v-24.26l.46-.09-11.57,29.12h-.74l-12.99-29.12v20.27c0,2.03.08,3.58.23,4.67.18,1.06.6,1.83,1.24,2.31.68.45,1.74.79,3.18,1v.91c-.61-.06-1.41-.09-2.4-.09-.98-.03-1.9-.05-2.76-.05-.68,0-1.37.02-2.07.05-.71,0-1.29.03-1.75.09v-.91c.95-.21,1.66-.53,2.12-.95.46-.45.77-1.16.92-2.13.15-.97.23-2.3.23-3.99v-19.32c0-1.12-.08-1.94-.23-2.45-.15-.54-.48-.91-.97-1.09-.46-.21-1.15-.33-2.07-.36v-.91c.46.03,1.04.06,1.75.09.71.03,1.4.05,2.07.05,1.78,0,3.49-.02,5.11-.05,1.63-.03,3.1-.06,4.42-.09l9.12,20.23-1.38,1.5,8.52-21.59h4.01c1.54,0,3.04-.02,4.52-.05,1.47-.03,2.69-.06,3.64-.09Z"/><path class="cls-1" d="M307.48,20.44c-.19-.2-.57-.36-.85-.36H73.98c-.27,0-.7-.11-.93-.25L38.77.1c-.24-.14-.63-.14-.87,0L.5,21.7c-.24.14-.43.48-.43.75L0,65.54c0,.27.19.61.43.75l37.35,21.49c.24.14.63.14.87,0l29.75-17.18c.24-.14.66-.25.93-.25h239.88c.27,0,.65-.16.84-.37l5.26-5.62c.19-.2.34-.59.34-.87V29.49c0-.27-.16-.66-.35-.86l-7.82-8.19Z"/><path class="cls-2" d="M23.36,18.18c9.23-5.31,20.61-5.31,29.84,0,9.23,5.31,14.92,15.13,14.92,25.76s-5.69,20.44-14.92,25.76c-9.23,5.31-20.61,5.31-29.84,0-9.23-5.31-14.92-15.13-14.92-25.76s5.69-20.44,14.92-25.76Z"/><path class="cls-4" d="M38.28,14.2c5.15,0,10.3,1.33,14.92,3.98,9.23,5.31,14.92,15.13,14.92,25.76s-5.69,20.44-14.92,25.76c-4.62,2.66-9.77,3.98-14.92,3.98s-10.3-1.33-14.92-3.98c-9.23-5.31-14.92-15.13-14.92-25.76s5.69-20.44,14.92-25.76c4.62-2.66,9.77-3.98,14.92-3.98M38.28,12.2c-5.58,0-11.08,1.47-15.92,4.25-4.83,2.78-8.86,6.8-11.65,11.62-2.79,4.82-4.27,10.31-4.27,15.87s1.48,11.05,4.27,15.87c2.79,4.82,6.82,8.83,11.65,11.62,4.83,2.78,10.34,4.25,15.92,4.25s11.08-1.47,15.92-4.25c4.83-2.78,8.86-6.8,11.65-11.62,2.79-4.82,4.27-10.31,4.27-15.87s-1.48-11.05-4.27-15.87c-2.79-4.82-6.82-8.83-11.65-11.62-4.83-2.78-10.34-4.25-15.92-4.25h0Z"/><path class="cls-3" d="M31.47,28.83l7.68,17.36,6.91-17.23h4.11c3.97,0,7.63-.11,8.07-.13v.85c-.87.03-1.53.14-2,.34-.43.17-.72.51-.87,1.02-.14.48-.22,1.25-.22,2.31v21.18c0,1.02.07,1.79.22,2.31.17.51.48.85.91,1.02.43.17,1.08.28,1.95.34v.85c-.9-.06-2.04-.09-3.43-.09-1.39-.03-2.81-.04-4.25-.04-1.56,0-3.04.01-4.43.04-1.36,0-2.46.03-3.3.09v-.85c.98-.06,1.72-.17,2.21-.34.52-.17.87-.51,1.04-1.02.17-.51.26-1.28.26-2.31v-21.84l-10.46,26.32h-.69l-12.24-27.42v19.09c0,1.91.07,3.37.22,4.4.17,1,.56,1.72,1.17,2.18.64.43,1.63.74,2.99.94v.85c-.58-.06-1.33-.09-2.26-.09-.93-.03-1.79-.04-2.6-.04-.64,0-1.86.01-2.53.04-.67,0-1.21.03-1.65.09v-.85c.9-.2,1.56-.5,2-.9.43-.43.72-1.1.87-2.01s.22-2.16.22-3.76v-18.19c0-1.05-.07-1.82-.22-2.31-.14-.51-.45-.85-.91-1.02-.43-.2-1.08-.31-1.95-.34v-.85c2.32.15,5.01.16,8.16.09.65-.01,5-.09,5-.09Z"/><path class="cls-3" d="M97.9,58.8c-1.83-.08-4.92-.13-9.26-.13-6.2,0-10.85.04-13.95.13v-.85c.9-.06,1.56-.17,1.97-.34.41-.17.68-.49.82-.97.14-.48.21-1.25.21-2.33v-16.74c0-1.07-.08-1.85-.23-2.33-.16-.48-.43-.8-.82-.97-.4-.17-1.04-.28-1.94-.34v-.85c3.1.08,7.75.13,13.95.13,3.94,0,6.75-.04,8.41-.13-.2,2-.3,3.8-.3,5.41,0,1.1.04,1.97.13,2.62h-.97c-.56-2.51-1.46-4.31-2.68-5.41-1.23-1.1-2.78-1.65-4.67-1.65h-.55c-.79,0-1.35.14-1.67.42-.32.28-.49.89-.49,1.82v9.13h.97c1.35,0,2.43-.49,3.23-1.46s1.32-2.06,1.54-3.28h.97c-.08.96-.13,2.08-.13,3.38v1.78c0,1.38.08,3.1.25,5.16h-.97c-.2-1.35-.72-2.48-1.56-3.38-.85-.9-1.96-1.35-3.34-1.35h-.97v9.3c0,.93.16,1.54.49,1.82.32.28.88.42,1.67.42h.97c1.97,0,3.61-.61,4.92-1.84,1.31-1.23,2.26-3.25,2.85-6.07h.97c-.08.79-.13,1.8-.13,3.04,0,1.72.1,3.66.3,5.83Z"/><path class="cls-3" d="M131.51,39.35c0,1.69.04,2.99.13,3.89h-.97c-.79-3.33-1.75-5.69-2.9-7.08-1.14-1.4-2.63-2.09-4.46-2.09h-.38v19.82c0,1.18.11,2.04.34,2.58.23.54.62.9,1.18,1.1.56.2,1.48.32,2.75.38v.85c-1.58-.08-4.42-.13-8.54-.13s-6.81.04-8.16.13v-.85c1.27-.06,2.18-.18,2.75-.38.56-.2.96-.56,1.18-1.1.23-.53.34-1.39.34-2.58v-19.82h-.38c-1.83,0-3.32.7-4.46,2.09-1.14,1.39-2.11,3.75-2.9,7.08h-.97c.08-.9.13-2.2.13-3.89,0-1.83-.1-3.92-.3-6.26,2.51.08,6.76.13,12.77.13s10.55-.04,13.15-.13c-.2,2.34-.3,4.42-.3,6.26Z"/><path class="cls-3" d="M162.96,57.95v.85c-1.44-.08-3.51-.13-6.21-.13-3.41,0-5.92.04-7.52.13v-.85c.87-.06,1.52-.2,1.94-.44.42-.24.63-.64.63-1.21,0-.51-.18-1.14-.55-1.9l-2.07-4.82h-7.9c-.96,2.2-1.44,3.96-1.44,5.28,0,1.13.34,1.91,1.01,2.35.68.44,1.65.68,2.92.74v.85c-2.11-.08-3.96-.13-5.54-.13-1.32,0-2.41.04-3.25.13v-.85c.68-.11,1.3-.53,1.88-1.27.58-.73,1.25-1.96,2.01-3.68l8.67-19.91c.62.06,1.08.08,1.4.08s.77-.03,1.39-.08l10.15,22.15c.85,1.75,1.68,2.65,2.49,2.71ZM148.8,48.74l-3.59-8.28-3.59,8.28h7.19Z"/><path class="cls-3" d="M186.67,33.18c1.07.45,2.25,1.14,3.55,2.07.37.28.65.42.85.42.54,0,.89-.86,1.06-2.58h.97c-.11,1.61-.17,4.42-.17,8.45h-.97c-.45-2.2-1.16-3.86-2.11-4.99-.85-.87-1.67-1.54-2.47-2.01-.8-.46-1.77-.7-2.9-.7-1.94,0-3.64.5-5.07,1.5-1.44,1-2.54,2.42-3.32,4.25-.78,1.83-1.16,3.96-1.16,6.38,0,4.31.65,7.48,1.94,9.51,1.3,2.03,3.23,3.04,5.79,3.04.79,0,1.41-.25,1.86-.76.39-.48.59-1.13.59-1.94v-4.14c0-1.18-.1-2.04-.3-2.58-.2-.54-.56-.9-1.08-1.1-.52-.2-1.35-.32-2.47-.38v-.85c2.03.08,4.58.13,7.65.13,2.71,0,4.73-.04,6.09-.13v.85c-.54.06-.92.17-1.14.34-.23.17-.38.49-.47.97-.08.48-.13,1.25-.13,2.32v7.52h-.85c-.14-1.3-.49-1.94-1.06-1.94-.48,0-1.23.27-2.24.8-.82.42-1.85.82-3.09,1.18-1.24.37-2.59.55-4.06.55-3.21,0-5.99-.51-8.33-1.54-2.34-1.03-4.12-2.51-5.35-4.44-1.23-1.93-1.84-4.25-1.84-6.95s.68-5.28,2.03-7.38c1.35-2.1,3.23-3.72,5.64-4.86,2.41-1.14,5.18-1.71,8.31-1.71,1.75,0,3.16.23,4.23.68Z"/><path class="cls-3" d="M228.38,57.95v.85c-1.44-.08-3.51-.13-6.21-.13-3.41,0-5.92.04-7.52.13v-.85c.87-.06,1.52-.2,1.94-.44.42-.24.63-.64.63-1.21,0-.51-.18-1.14-.55-1.9l-2.07-4.82h-7.9c-.96,2.2-1.44,3.96-1.44,5.28,0,1.13.34,1.91,1.01,2.35.68.44,1.65.68,2.92.74v.85c-2.11-.08-3.96-.13-5.54-.13-1.32,0-2.41.04-3.25.13v-.85c.68-.11,1.3-.53,1.88-1.27.58-.73,1.25-1.96,2.01-3.68l8.67-19.91c.62.06,1.08.08,1.4.08s.77-.03,1.39-.08l10.15,22.15c.85,1.75,1.68,2.65,2.49,2.71ZM214.22,48.74l-3.59-8.28-3.59,8.28h7.19Z"/><path class="cls-3" d="M266.99,34.28c-.46.17-.78.49-.95.97-.17.48-.25,1.25-.25,2.33v16.74c0,1.07.08,1.85.25,2.33.17.48.49.8.95.97s1.2.28,2.22.34v.85c-1.63-.08-3.99-.13-7.06-.13-3.8,0-6.59.04-8.37.13v-.85c1.01-.06,1.75-.17,2.22-.34.46-.17.78-.49.95-.97.17-.48.25-1.25.25-2.33v-18.56l-9.34,23.25h-.68l-9.81-23.21v16.82c0,1.35.12,2.37.36,3.04.24.68.68,1.18,1.33,1.5.65.32,1.65.58,3,.78v.85c-1.38-.08-3.1-.13-5.16-.13-1.49,0-2.66.04-3.51.13v-.85c.9-.2,1.56-.46,1.97-.78.41-.32.68-.82.82-1.48.14-.66.21-1.68.21-3.06v-15.05c0-1.07-.08-1.85-.25-2.33-.17-.48-.49-.8-.95-.97-.46-.17-1.2-.28-2.22-.34v-.85c1.86.08,4.72.13,8.58.13,1.55,0,2.85-.04,3.89-.13l6,14.37,5.75-14.25h4.95c3.07,0,5.42-.04,7.06-.13v.85c-1.01.06-1.75.17-2.22.34Z"/><path class="cls-3" d="M299.79,58.8c-1.83-.08-4.92-.13-9.26-.13-6.2,0-10.85.04-13.95.13v-.85c.9-.06,1.56-.17,1.97-.34.41-.17.68-.49.82-.97.14-.48.21-1.25.21-2.33v-16.74c0-1.07-.08-1.85-.23-2.33-.16-.48-.43-.8-.82-.97-.4-.17-1.04-.28-1.94-.34v-.85c3.1.08,7.75.13,13.95.13,3.94,0,6.75-.04,8.41-.13-.2,2-.3,3.8-.3,5.41,0,1.1.04,1.97.13,2.62h-.97c-.56-2.51-1.46-4.31-2.68-5.41-1.23-1.1-2.78-1.65-4.67-1.65h-.55c-.79,0-1.35.14-1.67.42-.32.28-.49.89-.49,1.82v9.13h.97c1.35,0,2.43-.49,3.23-1.46s1.32-2.06,1.54-3.28h.97c-.08.96-.13,2.08-.13,3.38v1.78c0,1.38.08,3.1.25,5.16h-.97c-.2-1.35-.72-2.48-1.56-3.38-.85-.9-1.96-1.35-3.34-1.35h-.97v9.3c0,.93.16,1.54.49,1.82.32.28.88.42,1.67.42h.97c1.97,0,3.61-.61,4.92-1.84,1.31-1.23,2.26-3.25,2.85-6.07h.97c-.08.79-.13,1.8-.13,3.04,0,1.72.1,3.66.3,5.83Z"/><path class="cls-4" d="M305.84,23.49c-.19-.2-.57-.37-.84-.37H75.13c-.27,0-.7-.11-.93-.25l-.09-.05c-.24-.14-.63-.36-.87-.5L39.56,2.95c-.24-.14-.61-.35-.83-.48s-.58-.13-.8,0-.59.34-.83.48L3.36,22.43c-.24.14-.61.35-.83.48s-.4.44-.4.69,0,.69,0,.96l-.06,38.86c0,.27,0,.71,0,.96s.18.57.4.69.6.34.83.48l33.68,19.38c.24.14.61.35.83.48s.58.13.8,0,.59-.34.83-.48l29.69-17.14c.24-.14.66-.25.93-.25h236.4c.27,0,.66-.16.86-.35l5.36-5.16c.2-.19.36-.57.36-.85v-29.5c0-.27-.15-.66-.34-.87l-6.87-7.34ZM311.55,60.56c0,.27-.16.66-.36.85l-4.47,4.3c-.2.19-.59.35-.86.35H69.48c-.27,0-.69.11-.93.25l-29.89,17.26c-.24.14-.63.14-.87,0L4.1,64.17c-.24-.14-.43-.47-.43-.75l.06-38.86c0-.27.2-.61.43-.75L37.9,4.33c.24-.14.63-.14.87,0l33.68,19.38c.24.14.43.25.43.25s.2.11.43.25l.28.16c.24.14.66.25.93.25h3.24c.27,0,.5,0,.5,0s.23,0,.5,0h225.57c.27,0,.65.16.84.37l6.02,6.43c.19.2.34.59.34.87v28.27Z"/></g></svg>