<?xml version="1.0" encoding="UTF-8"?><svg id="Layer_2" xmlns="http://www.w3.org/2000/svg" viewBox="0 0 111.5 72.58"><defs><style>.cls-1,.cls-2{stroke-width:2px;}.cls-1,.cls-2,.cls-3,.cls-4,.cls-5{fill:none;stroke:#b28b2e;}.cls-6{fill:#3c0e2c;}.cls-2,.cls-3{stroke-linecap:round;}.cls-3{stroke-linejoin:round;}.cls-4{stroke-linejoin:bevel;}</style></defs><g id="keret"><polygon class="cls-6" points="111.5 72.58 111.5 59.91 95.93 59.91 92.31 54.1 37.86 54.1 19.82 36.06 19.82 1.84 17.9 0 .12 0 0 72.58 111.5 72.58"/><line class="cls-5" x1="96" y1="70.56" x2="111.5" y2="70.58"/><line class="cls-3" x1="94.98" y1="68.95" x2="96" y2="70.56"/><line class="cls-3" x1="89.55" y1="59.19" x2="91.69" y2="62.74"/><line class="cls-1" x1="42.55" y1="65.2" x2="111.5" y2="65.2"/><polyline class="cls-2" points="33.18 55.45 10.44 32.41 10.44 10.56"/><line class="cls-2" x1="42.6" y1="65.22" x2="39.83" y2="62.19"/><polyline class="cls-3" points="5.92 .92 16.09 7.47 16.11 30.58"/><line class="cls-3" x1="16.11" y1="44.29" x2="16.11" y2="59.04"/><line class="cls-3" x1="16.34" y1="59.04" x2="89.48" y2="59.04"/><line class="cls-4" x1="5.92" y1=".88" x2="5.93" y2="0"/></g></svg>