<?xml version="1.0" encoding="UTF-8"?><svg id="Layer_2" xmlns="http://www.w3.org/2000/svg" viewBox="0 0 110.42 72.58"><defs><style>.cls-1,.cls-2{stroke-width:2px;}.cls-1,.cls-2,.cls-3,.cls-4{fill:none;stroke:#b28b2e;}.cls-5{fill:#3c0e2c;}.cls-2,.cls-3{stroke-linecap:round;}.cls-3{stroke-linejoin:round;}</style></defs><g id="keret"><polygon class="cls-5" points="95.77 0 90.55 3.91 90.55 33.78 68.78 55.55 18.8 55.55 12.16 59.91 0 59.91 0 72.58 110.42 72.58 110.42 0 95.77 0"/><polyline class="cls-2" points="78.42 56.02 101.16 32.98 101.16 11.13"/><line class="cls-2" x1="69.05" y1="65.2" x2="71.76" y2="62.76"/><polyline class="cls-3" points="105.93 1.48 95.51 8.04 95.49 31.15"/><line class="cls-4" x1="15.35" y1="70.56" x2="0" y2="70.58"/><line class="cls-3" x1="16.36" y1="68.95" x2="15.35" y2="70.56"/><line class="cls-1" x1="0" y1="65.2" x2="69.05" y2="65.2"/><line class="cls-3" x1="95.49" y1="44.86" x2="95.49" y2="59.61"/><line class="cls-3" x1="95.26" y1="59.61" x2="22.12" y2="59.61"/><line class="cls-4" x1="105.93" y1="1.48" x2="105.93" y2="0"/></g></svg>