<?xml version="1.0" encoding="UTF-8"?><svg id="Layer_2" xmlns="http://www.w3.org/2000/svg" viewBox="0 0 110.42 189.17"><defs><style>.cls-1,.cls-2,.cls-3,.cls-4,.cls-5,.cls-6{fill:none;stroke:#b28b2e;}.cls-1,.cls-2,.cls-4{stroke-width:2px;}.cls-7{fill:#3c0e2c;}.cls-2,.cls-3,.cls-4,.cls-5{stroke-linecap:round;}.cls-3,.cls-4{stroke-linejoin:round;}</style></defs><g id="keret"><path class="cls-7" d="M29.45,29.1l22.02.33s3.06,14.37,18.41,24.32,25.31,10.52,25.31,10.52l1.17,30.84-5.39,4.98v83.37l6.22,4.98v.74h13.23V0H0v17.14h24.19s5.26,11.95,5.26,11.95Z"/><path class="cls-2" d="M100.92,60.16c-8.17.08-16.36-1.98-23.68-6.2-10.9-6.27-18.61-16.43-21.7-28.26"/><line class="cls-4" x1="101.02" y1="60.29" x2="101.09" y2="103.89"/><line class="cls-3" x1="105.86" y1="14.1" x2="105.94" y2="94.92"/><line class="cls-6" x1="105.86" y1="187.68" x2="105.86" y2="189.17"/><line class="cls-2" x1="101.16" y1="178.24" x2="101.16" y2="102.66"/><polyline class="cls-3" points="97.79 100.04 95.77 101.31 95.73 156.86"/><line class="cls-3" x1="105.94" y1="94.92" x2="104.33" y2="95.93"/><polyline class="cls-5" points="105.86 187.68 95.7 181.12 95.68 156.74"/><line class="cls-1" x1="24.09" y1="5.95" x2="0" y2="5.95"/><line class="cls-4" x1="26.04" y1="10.99" x2="24.09" y2="5.95"/><polyline class="cls-4" points="55.58 25.38 31.59 25.38 28.31 16.89"/><line class="cls-6" x1="0" y1="14.1" x2="105.75" y2="14.1"/></g></svg>