<?xml version="1.0" encoding="UTF-8"?><svg id="Layer_2" xmlns="http://www.w3.org/2000/svg" xmlns:xlink="http://www.w3.org/1999/xlink" viewBox="0 0 110.81 189.17"><defs><style>.cls-1,.cls-2,.cls-3,.cls-4,.cls-5{fill:none;}.cls-2,.cls-3,.cls-4,.cls-5{stroke:#b28b2e;}.cls-2,.cls-4{stroke-width:2px;}.cls-6{fill:#3c0e2c;}.cls-7{fill:url(#linear-gradient);}.cls-3,.cls-4{stroke-linecap:round;stroke-linejoin:round;}.cls-8{fill:#fff;}.cls-9{fill:#3b112c;}.cls-10{fill:#b28b2e;}</style><linearGradient id="linear-gradient" x1="13.77" y1="621.49" x2="60.92" y2="626.13" gradientTransform="translate(0 662) scale(1 -1)" gradientUnits="userSpaceOnUse"><stop offset=".24" stop-color="#3c0f2c"/><stop offset="1" stop-color="#b41e40"/></linearGradient></defs><g id="keret"><polygon class="cls-6" points="15.56 189.17 23.48 182.62 23.48 109.62 30.53 105.89 30.12 69.81 36.98 73.05 66.2 55.29 66.62 28.33 102.7 28.33 108.14 17.23 110.8 17.23 110.8 0 108.14 0 .31 .02 0 189.17 15.56 189.17"/><polygon class="cls-6" points="23.48 109.62 30.53 105.89 30.12 69.81 36.98 73.05 66.2 55.29 66.62 28.33 102.7 28.33 108.14 17.23 110.81 17.23 110.81 0 108.14 0 .31 .02 .08 141.01 23.48 141.01 23.48 109.62"/><polygon class="cls-6" points="23.48 109.62 30.53 105.89 30.12 69.81 36.98 73.05 66.2 55.29 66.62 28.33 102.7 28.33 108.14 17.23 110.81 17.23 110.81 0 108.14 0 .31 .02 .08 141.01 23.48 141.01 23.48 109.62"/><polygon class="cls-6" points="23.48 109.62 30.53 105.89 30.12 69.81 36.98 73.05 66.2 55.29 66.62 28.33 102.7 28.33 108.14 17.23 110.81 17.23 110.81 0 108.14 0 .31 .02 .08 141.01 23.48 141.01 23.48 109.62"/><line class="cls-4" x1="106.17" y1="10.93" x2="108.14" y2="5.95"/><polyline class="cls-4" points="61.98 15.61 66.12 25.32 100.62 25.32 103.9 16.82"/><polyline class="cls-4" points="9.87 106.74 24.9 100.63 24.9 66.25 15.06 61.82 5.37 38.51 15.06 15.21 38.44 5.56 61.82 15.21"/><line class="cls-5" x1="79.7" y1="14.08" x2="110.81" y2="14.1"/><line class="cls-3" x1="75" y1="21.96" x2="79.54" y2="14.1"/><polyline class="cls-3" points="21.59 75.29 16.23 78.53 16 99.29"/><polyline class="cls-3" points="5.31 187.68 15.99 181.12 16 109.01"/><line class="cls-4" x1="9.93" y1="107.08" x2="9.93" y2="178.48"/><polygon class="cls-9" points="37.84 11.13 14.39 24.67 14.35 51.68 37.76 65.15 61.21 51.61 61.24 24.6 37.84 11.13"/><path class="cls-10" d="M37.84,11.13l23.41,13.47-.04,27.01-23.45,13.54-23.41-13.47.04-27.01,23.45-13.54M37.83,9.88l-.54.31-23.45,13.54-.54.31v.62s-.04,27.01-.04,27.01v.63s.54.31.54.31l23.41,13.47.54.31.54-.31,23.45-13.54.54-.31v-.62s.04-27.01.04-27.01v-.63s-.54-.31-.54-.31l-23.41-13.47-.54-.31h0Z"/><path class="cls-7" d="M27.69,20.69c6.26-3.6,13.96-3.6,20.22,0,6.26,3.6,10.11,10.25,10.11,17.45s-3.85,13.85-10.11,17.45c-6.26,3.6-13.96,3.6-20.22,0-6.26-3.6-10.11-10.25-10.11-17.45s3.85-13.85,10.11-17.45Z"/><path class="cls-10" d="M37.8,17.99c3.49,0,6.98.9,10.11,2.7,6.26,3.6,10.11,10.25,10.11,17.45s-3.85,13.85-10.11,17.45c-3.13,1.8-6.62,2.7-10.11,2.7s-6.98-.9-10.11-2.7c-6.26-3.6-10.11-10.25-10.11-17.45s3.85-13.85,10.11-17.45c3.13-1.8,6.62-2.7,10.11-2.7M37.8,16.64c-3.78,0-7.51,1-10.78,2.88-3.27,1.88-6.01,4.61-7.9,7.87-1.89,3.26-2.89,6.98-2.89,10.75s1,7.49,2.89,10.75c1.89,3.26,4.62,5.99,7.9,7.87,3.27,1.88,7,2.88,10.78,2.88s7.51-1,10.78-2.88c3.27-1.88,6.01-4.61,7.9-7.87,1.89-3.26,2.89-6.98,2.89-10.75s-1-7.49-2.89-10.75c-1.89-3.26-4.62-5.99-7.9-7.87-3.27-1.88-7-2.88-10.78-2.88h0Z"/><path class="cls-8" d="M33.19,27.9l5.2,11.76,4.68-11.68h2.78c2.69,0,5.17-.07,5.47-.09v.58c-.59.02-1.04.1-1.35.23-.29.12-.49.35-.59.69-.1.33-.15.85-.15,1.56v14.35c0,.69.05,1.22.15,1.56.12.35.32.58.62.69.29.12.73.19,1.32.23v.58c-.61-.04-1.38-.06-2.32-.06-.94-.02-1.9-.03-2.88-.03-1.06,0-2.06,0-3,.03-.92,0-1.67.02-2.23.06v-.58c.67-.04,1.17-.12,1.5-.23.35-.12.59-.35.71-.69.12-.35.18-.87.18-1.56v-14.8l-7.08,17.83h-.47l-8.29-18.58v12.93c0,1.29.05,2.29.15,2.98.12.68.38,1.17.79,1.48.43.29,1.11.5,2.03.64v.58c-.39-.04-.9-.06-1.53-.06-.63-.02-1.22-.03-1.76-.03-.43,0-1.26,0-1.71.03-.45,0-.82.02-1.12.06v-.58c.61-.14,1.06-.34,1.35-.61.29-.29.49-.74.59-1.36s.15-1.47.15-2.55v-12.33c0-.71-.05-1.23-.15-1.56-.1-.35-.3-.58-.62-.69-.29-.14-.73-.21-1.32-.23v-.58c1.57.1,3.4.11,5.53.06.44,0,3.39-.06,3.39-.06Z"/><line class="cls-1" x1="37.84" y1="11.13" x2="66.48" y2="26.41"/><line class="cls-4" x1="109.63" y1="5.94" x2="108.14" y2="5.94"/><line class="cls-2" x1="110.72" y1="5.94" x2="108.14" y2="5.94"/></g></svg>