<?xml version="1.0" encoding="UTF-8"?><svg id="Layer_2" xmlns="http://www.w3.org/2000/svg" viewBox="0 0 111.58 47.03"><defs><style>.cls-1,.cls-2,.cls-3,.cls-4,.cls-5{fill:none;stroke:#b28b2e;}.cls-1,.cls-3{stroke-width:2px;}.cls-6{fill:#3c0e2c;}.cls-2,.cls-3{stroke-linejoin:round;}.cls-2,.cls-3,.cls-4{stroke-linecap:round;}</style></defs><g id="keret"><polygon class="cls-6" points=".08 0 0 47.03 111.58 47.03 111.58 0 .08 0"/><line class="cls-5" x1="10.39" y1="37.03" x2="111.58" y2="37.03"/><line class="cls-1" x1="104.74" y1="7.03" x2="111.58" y2="7.03"/><line class="cls-3" x1="42.09" y1="7.03" x2="104.74" y2="7.03"/><polyline class="cls-4" points="10.78 2.33 30.02 2.33 42.52 12.53 92.02 12.53 95.77 11.08"/><polyline class="cls-3" points="15.28 13.01 6.57 17.49 6.57 34.96 6.57 42.03 14.56 42.03 17.05 42.03"/><polyline class="cls-3" points="28.07 7.03 15.72 7.03 15.61 12.68 12.32 14.55"/><line class="cls-2" x1="10.84" y1="19.25" x2="10.89" y2="36.6"/><line class="cls-2" x1="10.78" y1="2.28" x2="10.8" y2="11.32"/><line class="cls-1" x1="17.05" y1="42.03" x2="111.58" y2="42.03"/></g></svg>