<?xml version="1.0" encoding="UTF-8"?><svg id="Layer_2" xmlns="http://www.w3.org/2000/svg" xmlns:xlink="http://www.w3.org/1999/xlink" viewBox="0 0 49.06 56.51"><defs><style>.cls-1{fill:url(#linear-gradient);}.cls-2{fill:#fff;}.cls-3{fill:#3b112c;}.cls-4{fill:#b28b2e;}</style><linearGradient id="linear-gradient" x1=".5" y1="611.61" x2="47.65" y2="616.25" gradientTransform="translate(0 642.23) scale(1 -1)" gradientUnits="userSpaceOnUse"><stop offset=".24" stop-color="#3c0f2c"/><stop offset="1" stop-color="#b41e40"/></linearGradient></defs><g id="keret"><polygon class="cls-3" points="24.57 1.25 1.12 14.79 1.08 41.79 24.49 55.27 47.94 41.73 47.98 14.72 24.57 1.25"/><path class="cls-4" d="M24.57,1.25l23.41,13.47-.04,27.01-23.45,13.54L1.08,41.79l.04-27.01L24.57,1.25M24.57,0l-.54.31L.58,13.85l-.54.31v.62S0,41.79,0,41.79v.63s.54.31.54.31l23.41,13.47.54.31.54-.31,23.45-13.54.54-.31v-.62s.04-27.01.04-27.01v-.63s-.54-.31-.54-.31L25.11.31l-.54-.31h0Z"/><path class="cls-1" d="M14.42,10.81c6.26-3.6,13.96-3.6,20.22,0,6.26,3.6,10.11,10.25,10.11,17.45s-3.85,13.85-10.11,17.45c-6.26,3.6-13.96,3.6-20.22,0-6.26-3.6-10.11-10.25-10.11-17.45s3.85-13.85,10.11-17.45Z"/><path class="cls-4" d="M24.53,8.11c3.49,0,6.98.9,10.11,2.7,6.26,3.6,10.11,10.25,10.11,17.45s-3.85,13.85-10.11,17.45c-3.13,1.8-6.62,2.7-10.11,2.7s-6.98-.9-10.11-2.7c-6.26-3.6-10.11-10.25-10.11-17.45s3.85-13.85,10.11-17.45c3.13-1.8,6.62-2.7,10.11-2.7M24.53,6.75c-3.78,0-7.51,1-10.78,2.88-3.27,1.88-6.01,4.61-7.9,7.87-1.89,3.26-2.89,6.98-2.89,10.75s1,7.49,2.89,10.75c1.89,3.26,4.62,5.99,7.9,7.87,3.27,1.88,7,2.88,10.78,2.88s7.51-1,10.78-2.88c3.27-1.88,6.01-4.61,7.9-7.87,1.89-3.26,2.89-6.98,2.89-10.75s-1-7.49-2.89-10.75c-1.89-3.26-4.62-5.99-7.9-7.87-3.27-1.88-7-2.88-10.78-2.88h0Z"/><path class="cls-2" d="M19.92,18.01l5.2,11.76,4.68-11.68h2.78c2.69,0,5.17-.07,5.47-.09v.58c-.59.02-1.04.1-1.35.23-.29.12-.49.35-.59.69-.1.33-.15.85-.15,1.56v14.35c0,.69.05,1.22.15,1.56.12.35.32.58.62.69.29.12.73.19,1.32.23v.58c-.61-.04-1.38-.06-2.32-.06-.94-.02-1.9-.03-2.88-.03-1.06,0-2.06,0-3,.03-.92,0-1.67.02-2.23.06v-.58c.67-.04,1.17-.12,1.5-.23.35-.12.59-.35.71-.69.12-.35.18-.87.18-1.56v-14.8l-7.08,17.83h-.47l-8.29-18.58v12.93c0,1.29.05,2.29.15,2.98.12.68.38,1.17.79,1.48.43.29,1.11.5,2.03.64v.58c-.39-.04-.9-.06-1.53-.06-.63-.02-1.22-.03-1.76-.03-.43,0-1.26,0-1.71.03-.45,0-.82.02-1.12.06v-.58c.61-.14,1.06-.34,1.35-.61.29-.29.49-.74.59-1.36s.15-1.47.15-2.55v-12.33c0-.71-.05-1.23-.15-1.56-.1-.35-.3-.58-.62-.69-.29-.14-.73-.21-1.32-.23v-.58c1.57.1,3.4.11,5.53.06.44,0,3.39-.06,3.39-.06Z"/></g></svg>