<svg xmlns="http://www.w3.org/2000/svg" viewBox="0 0 24 24" fill="none" stroke="currentColor" stroke-width="1.5" stroke-linecap="round" stroke-linejoin="round"><path d="M8.25 12.99 L17.99 3.25 L21.8 2.2 L20.75 6.01 L11.01 15.75ZM10.44 18.42 L10.68 18.61 L10.96 18.72 L11.25 18.76 L11.55 18.72 L11.83 18.61 L12.07 18.42 L12.25 18.19 L12.36 17.91 L12.4 17.61 L12.36 17.32 L12.25 17.04 L12.07 16.8 L7.2 11.93 L6.96 11.75 L6.68 11.64 L6.39 11.6 L6.09 11.64 L5.81 11.75 L5.58 11.93 L5.39 12.17 L5.28 12.45 L5.24 12.75 L5.28 13.04 L5.39 13.32 L5.58 13.56ZM7 14.98 L4.32 17.65M9.02 17 L6.35 19.68M5.33 21.26 L5.56 20.98 L5.73 20.67 L5.84 20.32 L5.87 19.96 L5.84 19.61 L5.73 19.26 L5.56 18.94 L5.33 18.67 L5.06 18.44 L4.74 18.27 L4.39 18.16 L4.04 18.13 L3.68 18.16 L3.33 18.27 L3.02 18.44 L2.74 18.67 L2.51 18.94 L2.34 19.26 L2.24 19.61 L2.2 19.96 L2.24 20.32 L2.34 20.67 L2.51 20.98 L2.74 21.26 L3.02 21.49 L3.33 21.66 L3.68 21.76 L4.04 21.8 L4.39 21.76 L4.74 21.66 L5.06 21.49Z"/></svg>
